
<svg xmlns="http://www.w3.org/2000/svg"
  xmlns:xlink="http://www.w3.org/1999/xlink" version="1.1" baseProfile="tiny">
  <defs>
    <style>
		.img { display: none }
		.img:target { display: inline }
    </style>
  </defs>
  <svg viewBox="-3 -2.5 25 25">
    <g id="document-20" class="img">
      <polygon fill="transparent" points="18 20 2 20 2 0 13.2 0 18 5 18 6.7 18 20"/>
      <path fill="gray" d="M13.2,0H2V20H18V5ZM17,6.7V19H3V1h8V6h6Z"/>
    </g>
  </svg>
  <svg viewBox="-3 -2.5 25 25">
    <g id="edoc-audio-20" class="img">
      <path fill="#DCA844" d="M10,5v10l-5-3H2c-0.6,0-1-0.4-1-1V9c0-0.6,0.4-1,1-1h3L10,5z M14.1,9c-0.2-1.4-0.8-2.6-1.8-3.6l-1.1,0.6
      c0.9,0.7,1.6,1.8,1.7,3.1c0.2,1.9-0.6,3.7-1.9,4.7l1.1,0.6C13.6,13.2,14.4,11.2,14.1,9z M18.9,8.2c-0.3-2-1.1-3.8-2.2-5.2l-1.1,0.6
      c1.1,1.3,1.9,3,2.1,4.8c0.4,3-0.6,5.8-2.4,8l1.1,0.6C18.3,14.6,19.3,11.5,18.9,8.2z M16.5,8.6c-0.2-1.7-0.9-3.2-1.9-4.4l-1.1,0.6
      c1,1.1,1.7,2.4,1.9,4c0.3,2.4-0.5,4.8-2.1,6.4l1,0.6C16,13.9,16.9,11.3,16.5,8.6z"/>
    </g>
  </svg>
  <svg viewBox="-3 -2.5 25 25">
    <g id="edoc-briefcase-20" class="img">
      <path fill="#498ACD" d="M16,4V2c0-1.1-0.9-2-2-2H6C4.9,0,4,0.9,4,2v2H0v7.5V20h20v-8.5V4H16z M8,2h4c1.1,0,2,0.9,2,2H6C6,2.9,6.9,2,8,2
	    z M19,19H1v-7.2c2,0.6,4.4,1,7,1.2V15h4v-2.1c2.6-0.1,5-0.6,7-1.2V19z"/>
    </g>
  </svg>
  <svg viewBox="-3 -2.5 25 25">
    <g id="edoc-config-20" class="img">
      <path fill="#808080" d="M11.2,8.6c-0.1,0.1-0.1,0.2-0.2,0.3c-1.3,1.4-6.4,6.4-7.8,7.8c-0.4,0.4-1.3,0.4-1.7,0c-0.3-0.3-0.9-0.7-1.2-1
      c-0.5-0.5-0.4-1.4,0-1.8C1.7,12.5,6.8,7.4,8.1,6C8.2,6,8.3,5.9,8.3,5.9c-0.5-1.6-0.2-3.3,1-4.6c1.5-1.5,3.9-1.7,5.7-0.5l-2.3,2.3
      c-0.3,0.3-0.3,0.8,0,1.2c0.3,0.3,0.8,0.3,1.1,0l2.3-2.3c1.2,1.7,1,4.1-0.5,5.7C14.5,8.8,12.7,9.2,11.2,8.6z"/>
      <path fill="#ECA700" d="M20,16v-2h-1.7c-0.1-0.2-0.2-0.5-0.3-0.7l1.2-1.2l-1.4-1.4l-1.2,1.2c-0.2-0.1-0.4-0.2-0.7-0.3V10h-2v1.7
      c-0.2,0.1-0.5,0.2-0.7,0.3l-1.2-1.2l-1.4,1.4l1.2,1.2c-0.1,0.2-0.2,0.4-0.3,0.7H10v2h1.7c0.1,0.2,0.2,0.5,0.3,0.7l-1.2,1.2l1.4,1.4
      l1.2-1.2c0.2,0.1,0.4,0.2,0.7,0.3V20h2v-1.7c0.2-0.1,0.5-0.2,0.7-0.3l1.2,1.2l1.4-1.4l-1.2-1.2c0.1-0.2,0.2-0.4,0.3-0.7H20z M15,17
      c-1.1,0-2-0.9-2-2c0-1.1,0.9-2,2-2s2,0.9,2,2C17,16.1,16.1,17,15,17z"/>
    </g>
  </svg>
  <svg viewBox="-3 -2.5 25 25">
    <g id="edoc-database-20" class="img">
      <polygon fill="transparent" points="18 20 2 20 2 0 13.2 0 18 5 18 6.7 18 20"/>
      <path fill="gray" d="M13.2,0H2V20H18V5ZM17,6.7V19H3V1h8V6h6Z"/>
      <path fill="#DCA844" d="M13,10V9c0-0.6-0.4-1-1-1H8C7.4,8,7,8.4,7,9v1c0,0.6,0.4,1,1,1c-0.6,0-1,0.4-1,1v1c0,0.6,0.4,1,1,1
      c-0.6,0-1,0.4-1,1v1c0,0.6,0.4,1,1,1h4c0.6,0,1-0.4,1-1v-1c0-0.6-0.4-1-1-1c0.6,0,1-0.4,1-1v-1c0-0.6-0.4-1-1-1
      C12.6,11,13,10.6,13,10z M8.5,16C8.2,16,8,15.8,8,15.5S8.2,15,8.5,15C8.8,15,9,15.2,9,15.5S8.8,16,8.5,16z M8.5,13
      C8.2,13,8,12.8,8,12.5S8.2,12,8.5,12C8.8,12,9,12.2,9,12.5S8.8,13,8.5,13z M8.5,10C8.2,10,8,9.8,8,9.5S8.2,9,8.5,9
      C8.8,9,9,9.2,9,9.5S8.8,10,8.5,10z"/>
    </g>
  </svg>
  <svg viewBox="-3 -2.5 25 25">
    <g id="edoc-exe-20" class="img">
      <path fill="#498ACD" d="M15.7,7.1L15.7,7.1l3.3,2L16,11v3.5L10,18l-6-3.6v-3.6L1,9.1l3.3-1.9V7.1l0,0L1,5.2L6.7,2L10,3.8L13.3,2
      L19,5.2L15.7,7.1L15.7,7.1z M11,15.6l3-1.9v-1.8l-0.7,0.5L11,10.8V15.6z M6,13.6l3,1.9l0-4.8l-2.3,1.5L6,11.8V13.6z M10,5L5.9,7.2
      L10,9.3l4.1-2.2L10,5z"/>
    </g>
  </svg>
  <svg viewBox="-3 -2.5 25 25">
    <g id="edoc-generic-20" class="img">
      <polygon fill="transparent" points="18 20 2 20 2 0 13.2 0 18 5 18 6.7 18 20"/>
      <path fill="gray" d="M13.2,0H2V20H18V5ZM17,6.7V19H3V1h8V6h6Z"/>
      <rect x="4" y="10" fill="#BCBEC0" width="12" height="1"/>
      <rect x="4" y="7" fill="#BCBEC0" width="12" height="1"/>
      <rect x="4" y="13" fill="#BCBEC0" width="12" height="1"/>
      <rect x="4" y="16" fill="#BCBEC0" width="8" height="1"/>
      <polygon fill="#C43E00" points="4,6 4,2 8,2 "/>
    </g>
  </svg>
  <svg viewBox="-3 -2.5 25 25">
    <g id="edoc-movie-20" class="img">
      <path fill="#498ACD" d="M15,8.1v3.8l5,4.1V4L15,8.1z M13,16H2c-1.1,0-2-0.9-2-2V7c0-1.1,0.9-2,2-2h11c0.6,0,1,0.4,1,1v9
	    C14,15.6,13.6,16,13,16z"/>
    </g>
  </svg>
  <svg viewBox="-3 -2.5 25 25">
    <g id="edoc-pdf-20" class="img">
      <polygon fill="transparent" points="18 20 2 20 2 0 13.2 0 18 5 18 6.7 18 20"/>
      <path fill="gray" d="M13.2,0H2V20H18V5ZM17,6.7V19H3V1h8V6h6Z"/>
      <path fill="#e42127" d="M7.4,11.56a1.52,1.52,0,0,1-.49,1.23,2.11,2.11,0,0,1-1.42.43H5V15H4V10H5.57a2.09,2.09,0,0,1,1.37.39A1.44,1.44,0,0,1,7.4,11.56ZM5,12.35h.35a1.13,1.13,0,0,0,.72-.19.68.68,0,0,0,.24-.56.71.71,0,0,0-.2-.55,1,1,0,0,0-.63-.18H5Z"/>
      <path fill="#e42127" d="M12.35,12.45a2.43,2.43,0,0,1-.7,1.89,2.85,2.85,0,0,1-2,.66H8.21V10H9.77a2.68,2.68,0,0,1,1.91.65A2.37,2.37,0,0,1,12.35,12.45Zm-1.1,0c0-1.07-.47-1.61-1.42-1.61H9.27v3.25h.45C10.74,14.12,11.25,13.58,11.25,12.48Z"/>
      <path fill="#e42127" d="M14.17,15h-1V10H16v.87H14.17v1.29h1.7V13h-1.7Z"/>
    </g>
  </svg>
  <svg viewBox="-3 -2.5 25 25">
    <g id="edoc-presentation-20" class="img">
      <polygon fill="transparent" points="19 20 3 20 3 0 14.2 0 19 5 19 6.7 19 20"/>
      <path fill="gray" d="M14.2,0H3V20H19V5ZM18,6.7V19H4V1h8V6h6Z"/>
      <rect fill="#d04525" x="1" y="4" width="9" height="8"/>
      <path fill="#bcbec0" d="M11,9v4H7a4,4,0,1,0,4-4Z"/>
      <path fill="white" d="M7.81,6.87a1.86,1.86,0,0,1-.59,1.48,2.56,2.56,0,0,1-1.7.52H5V11H3.73V5H5.62a2.49,2.49,0,0,1,1.63.47A1.7,1.7,0,0,1,7.81,6.87ZM5,7.82h.41a1.33,1.33,0,0,0,.87-.23.81.81,0,0,0,.29-.67.83.83,0,0,0-.24-.66A1.1,1.1,0,0,0,5.55,6H5Z"/>
    </g>
  </svg>
  <svg viewBox="-3 -2.5 25 25">
    <g id="edoc-qfx-20" class="img">
      <path fill="#EE732D" d="M11,13H3v-2h8V13z M13,14l0-1l3,2l-3,2l0-1.1C8.3,15.7,8,17,8,17C7.9,14.4,11.3,14,13,14z M13,10H5V8h8V10z
      M7,5h8v2H7V5z"/>
      <path fill="#EE732D" d="M18,2v16H2V2H18 M19,1H1v18h18V1L19,1z"/>
    </g>
  </svg>
  <svg viewBox="-3 -2.5 25 25">
    <g id="edoc-registry-20" class="img">
      <path fill="#498ACD" d="M18,1h-2c-0.6,0-1,0.4-1,1v2c0,0.6,0.4,1,1,1h2c0.6,0,1-0.4,1-1V2C19,1.4,18.6,1,18,1z"/>
      <path fill="#498ACD" d="M17,8h-2c-0.6,0-1,0.4-1,1v2c0,0.6,0.4,1,1,1h2c0.6,0,1-0.4,1-1V9C18,8.4,17.6,8,17,8z"/>
      <path fill="#498ACD" d="M12,3h-2C9.4,3,9,3.4,9,4v2c0,0.6,0.4,1,1,1h2c0.6,0,1-0.4,1-1V4C13,3.4,12.6,3,12,3z"/>
      <path fill="#498ACD" d="M4,5H2C1.4,5,1,5.4,1,6v2c0,0.6,0.4,1,1,1h2c0.6,0,1-0.4,1-1V6C5,5.4,4.6,5,4,5z"/>
      <path fill="#498ACD" d="M4,10H2c-0.6,0-1,0.4-1,1v2c0,0.6,0.4,1,1,1h2c0.6,0,1-0.4,1-1v-2C5,10.4,4.6,10,4,10z"/>
      <path fill="#498ACD" d="M9,10H7c-0.6,0-1,0.4-1,1v2c0,0.6,0.4,1,1,1h2c0.6,0,1-0.4,1-1v-2C10,10.4,9.6,10,9,10z"/>
      <path fill="#498ACD" d="M4,15H2c-0.6,0-1,0.4-1,1v2c0,0.6,0.4,1,1,1h2c0.6,0,1-0.4,1-1v-2C5,15.4,4.6,15,4,15z"/>
      <path fill="#498ACD" d="M9,15H7c-0.6,0-1,0.4-1,1v2c0,0.6,0.4,1,1,1h2c0.6,0,1-0.4,1-1v-2C10,15.4,9.6,15,9,15z"/>
      <path fill="#498ACD" d="M14,15h-2c-0.6,0-1,0.4-1,1v2c0,0.6,0.4,1,1,1h2c0.6,0,1-0.4,1-1v-2C15,15.4,14.6,15,14,15z"/>
    </g>
  </svg>
  <svg viewBox="-3 -2.5 25 25">
    <g id="edoc-spreadsheet-20" class="img">
      <polygon fill="transparent" points="19 20 3 20 3 0 14.2 0 19 5 19 6.7 19 20"/>
      <path fill="gray" d="M14.2,0H3V20H19V5ZM18,6.7V19H4V1h8V6h6Z"/>
      <rect fill="#005f01" x="1" y="4" width="9" height="8"/>
      <path fill="white" d="M8.3,11.06H6.85L5.45,8.79,4.06,11.06H2.7L4.69,8,2.82,5.06H4.23L5.52,7.22,6.79,5.06H8.16L6.28,8Z"/>
      <rect fill="#bcbec0" x="15.1" y="7" width="1.9" height="1"/>
      <rect fill="#bcbec0" x="11" y="7" width="2" height="1"/>
      <rect fill="#bcbec0" x="15.1" y="10" width="1.9" height="1"/>
      <rect fill="#bcbec0" x="15.1" y="13" width="1.9" height="1"/>
      <rect fill="#bcbec0" x="7" y="13" width="1.9" height="1"/>
      <rect fill="#bcbec0" x="11" y="10" width="2" height="1"/>
      <rect fill="#bcbec0" x="11" y="13" width="2" height="1"/>
      <rect fill="#bcbec0" x="15.1" y="16.1" width="1.9" height="1"/>
      <rect fill="#bcbec0" x="7" y="16.1" width="1.9" height="1"/>
      <rect fill="#bcbec0" x="11" y="16.1" width="2" height="1"/>
    </g>
  </svg>
  <svg viewBox="-3 -2.5 25 25">
    <g id="edoc-code-20" class="img">
      <path fill="#8AB579" d="M5.7,6.9L4.9,6.1c-0.2-0.2-0.5-0.2-0.7,0L0,10.4l4.2,4.4c0.2,0.2,0.5,0.2,0.7,0L5.7,14c0.2-0.2,0.2-0.5,0-0.7
			L3,10.4l2.7-2.8C5.9,7.4,5.9,7.1,5.7,6.9z M12.5,4.1c-0.4-0.2-1-0.1-1.2,0.3L7.2,14.6c-0.3,0.4-0.1,1,0.3,1.2
			c0.4,0.2,1,0.1,1.2-0.3l4.1-10.2C13.1,4.9,12.9,4.4,12.5,4.1z M15.8,6.1c-0.2-0.2-0.5-0.2-0.7,0l-0.8,0.8c-0.2,0.2-0.2,0.5,0,0.7
			l2.7,2.8l-2.7,2.8c-0.2,0.2-0.2,0.5,0,0.7l0.8,0.8c0.2,0.2,0.5,0.2,0.7,0l4.2-4.4L15.8,6.1z"/>
    </g>
  </svg>
  <svg viewBox="-3 -2.5 25 25">
    <g id="edoc-text-20" class="img">
      <polygon fill="transparent" points="18 20 2 20 2 0 13.2 0 18 5 18 6.7 18 20"/>
      <path fill="gray" d="M13.2,0H2V20H18V5ZM17,6.7V19H3V1h8V6h6Z"/>
      <rect x="4" y="10" fill="#BCBEC0" width="12" height="1"/>
      <rect x="4" y="7" fill="#BCBEC0" width="12" height="1"/>
      <rect x="4" y="13" fill="#BCBEC0" width="12" height="1"/>
      <rect x="4" y="16" fill="#BCBEC0" width="8" height="1"/>
    </g>
  </svg>
  <svg viewBox="-3 -2.5 25 25">
    <g id="edoc-wfx-20" class="img">
      <path fill="#2A7ED4" d="M16,10.7V9.3l-1.4-0.5l-0.5-1.2l0.7-1.4l-1-0.9l-1.4,0.7l-1.2-0.5L10.7,4H9.3L8.8,5.4L7.5,6L6.2,5.3l-1,0.9
      l0.9,1.3L5.4,8.9L4,9.3v1.4l1.4,0.5L6,12.5L5.2,14l0.9,1l1.4-0.9l1.3,0.5L9.3,16h1.4l0.5-1.4l1.3-0.5l1.5,0.9l0.9-1L14,12.5l0.6-1.3
      L16,10.7z M10,12c-1.1,0-2-0.9-2-2c0-1.1,0.9-2,2-2c1.1,0,2,0.9,2,2C12,11.1,11.1,12,10,12z"/>
      <path fill="#2A7ED4" d="M18,2v16H2V2H18 M19,1H1v18h18V1L19,1z"/>
    </g>
  </svg>
  <svg viewBox="-3 -2.5 25 25">
    <g id="edoc-wordprocessing-20" class="img">
      <polygon fill="transparent" points="19 20 3 20 3 0 14.2 0 19 5 19 6.7 19 20"/>
      <path fill="gray" d="M14.2,0H3V20H19V5ZM18,6.7V19H4V1h8V6h6Z"/>
      <rect fill="#2a5598" x="1" y="4" width="9" height="8"/>
      <rect fill="#bcbec0" x="11" y="10" width="6" height="1"/>
      <rect fill="#bcbec0" x="11" y="7" width="6" height="1"/>
      <rect fill="#bcbec0" x="5" y="13" width="12" height="1"/>
      <rect fill="#bcbec0" x="5" y="16" width="12" height="1"/>
      <path fill="white" d="M8,11.06H6.59L5.77,7.91q0-.17-.15-.69c-.07-.36-.11-.59-.12-.71,0,.14-.06.38-.13.71s-.11.56-.15.7l-.81,3.14H3l-1.53-6H2.69l.77,3.28c.13.6.23,1.13.29,1.57a7.3,7.3,0,0,1,.11-.73A6.51,6.51,0,0,1,4,8.42L4.9,5.06H6.1L7,8.42c0,.15.08.38.14.69s.1.58.13.8c0-.21.07-.48.13-.8s.12-.58.17-.77l.76-3.28H9.56Z"/>
    </g>
  </svg>
  <svg viewBox="-3 -2.5 25 25">
    <g id="edoc-zip-20" class="img">
      <path fill="#808080" d="M18,2v16H2V2H18 M19,1H1v18h18V1L19,1z M18,2H8v1H6V2H2 M8,3h2v1H8V3z M8,5h2v1H8V5z M8,7h2v1H8V7z M10,10H8V9
      h2V10z M6,8h2v1H6V8z M6,6h2v1H6V6z M6,4h2v1H6V4z M8.2,11H7.8c-1,0-1.8,0.8-1.8,1.8v2.3c0,1,0.8,1.8,1.8,1.8h0.3
      c1,0,1.8-0.8,1.8-1.8v-2.3C10,11.8,9.2,11,8.2,11z M9,16H7v-2h2V16z M8,10H6v1h2V10z"/>
    </g>
  </svg>
  <svg viewBox="-3 -2.5 25 25">
    <g id="email-20" class="img">
      <path fill="#808080" d="M1,3v14h18V3H1z M2,16V4.9l7.3,6.5c0.4,0.4,1,0.4,1.4,0L18,4.8V16H2z"/>
    </g>
  </svg>
  <svg viewBox="-3 -2.5 25 25">
    <g id="folder-20" class="img">
      <path fill="transparent" d="M.75,4.82h17.5a1,1,0,0,1,1,1V17.18a1,1,0,0,1-1,1H1.75a1,1,0,0,1-1-1V4.82a0,0,0,0,1,0,0Z"/>
      <path fill="gray" d="M18,4H10V3A2,2,0,0,0,8,1H2A2,2,0,0,0,0,3V17a2,2,0,0,0,2,2H18a2,2,0,0,0,2-2V6A2,2,0,0,0,18,4Zm1,13a.94.94,0,0,1-1,1H2a.94.94,0,0,1-1-1V5H18a.94.94,0,0,1,1,1Z"/>
    </g>
  </svg>
  <svg viewBox="-3 -2.5 25 25">
    <g id="link-20" class="img">
      <path fill="#808080" d="M18.5,4.1l-1.8,1.8c1.1,1.9,0.8,4-0.7,5.6l-4.6,4.6c-1.5,1.5-3.5,1.6-5.4,0.6l-1.9,1.8c-0.7,0.7-1.9,0.7-2.6,0
      c-0.7-0.7-0.7-1.9,0-2.6l1.8-1.8c-1.1-1.9-1-4,0.7-5.6L8.5,4c1.6-1.6,3.7-1.8,5.6-0.7l1.8-1.8c0.7-0.7,1.9-0.7,2.6,0
      C19.2,2.3,19.2,3.4,18.5,4.1z M12.2,7.8c-0.6-0.6-0.7-1.2-0.5-1.9c-0.6,0.1-1.1,0.4-1.4,0.7c-0.8,0.8-3.7,3.7-3.7,3.7
      c-0.2,0.2-0.6,0.8-0.7,1.4c0.6-0.2,1.3-0.1,1.8,0.5c0.6,0.5,0.7,1.2,0.5,1.9c0.5-0.1,1-0.4,1.2-0.6l3.8-3.8
      c0.3-0.3,0.6-0.8,0.7-1.4C13.5,8.5,12.8,8.4,12.2,7.8z"/>
    </g>
  </svg>
  <svg viewBox="-3 -2.5 25 25">
    <g id="image-20" class="img">
      <g display="none">
        <path fill="#555555" display="inline" d="M13,9L13,9c-1.1,0-2-0.9-2-2l0,0c0-1.1,0.9-2,2-2l0,0c1.1,0,2,0.9,2,2l0,0C15,8.1,14.1,9,13,9z M19,3v14
        c0,1.1-0.9,2-2,2H3c-1.1,0-2-0.9-2-2V3c0-1.1,0.9-2,2-2h14C18.1,1,19,1.9,19,3z M17,4c0-0.5-0.5-1-1-1H4C3.5,3,3,3.5,3,4v10l4-6
        l4,7l3-4l3,4V4z"/>
      </g>
      <g>
        <path fill="#808080" d="M17,1H3C1.9,1,1,1.9,1,3v14c0,1.1,0.9,2,2,2h14c1.1,0,2-0.9,2-2V3C19,1.9,18.1,1,17,1z M18,15l-4-5l-3,4L7,7
        l-5,7V3c0-0.6,0.4-1,1-1h14c0.6,0,1,0.4,1,1V15z M13,8L13,8c-1.1,0-2-0.9-2-2l0,0c0-1.1,0.9-2,2-2l0,0c1.1,0,2,0.9,2,2l0,0
        C15,7.1,14.1,8,13,8z"/>
      </g>
    </g>
  </svg>
  <svg viewBox="2 -14.5 30 30">
    <g id="shortcut-overlay" class="img">
      <path fill="#fff" d="M5,14.88H15.55V4.31H5ZM7.11,5.67h7.08v7.08L11.24,9.8,7.51,13.52,6.33,12.34l3.73-3.72Z"/>
      <path fill="#666" d="M4.42,3.76V15.43H16.1V3.76ZM15.55,14.88H5V4.31H15.55Z"/>
      <polygon fill="#666" points="7.51 13.52 11.24 9.8 14.19 12.75 14.19 5.67 7.11 5.67 10.06 8.62 6.33 12.34 7.51 13.52"/>
    </g>
  </svg>
</svg>